<svg xmlns="http://www.w3.org/2000/svg" viewBox="0 0 260 44">
  <defs>
    <style>
      .cls-1 {
        fill: #e9e9e9;
      }
    </style>
  </defs>
  <g id="Capa_3" data-name="Capa 3">
    <rect class="cls-1" x="-13.28" y="-4.88" width="277.2" height="56.88"/>
    <g>
      <polygon points="84.35 17.77 101.31 34.74 101.31 30.98 84.37 14.04 84.35 17.77"/>
      <polygon points="86.94 26.88 84.36 24.29 84.36 27.07 86.94 29.65 86.94 26.88"/>
      <polygon points="82.31 8.21 80.25 8.21 80.25 35.44 82.31 35.44 100.66 35.44 86.36 21.14 86.18 20.98 86.18 20.98 84.35 19.21 84.35 22.91 86.52 25.1 86.94 25.5 86.94 25.5 94.28 32.87 82.79 32.77 82.79 10.75 98.76 10.75 98.76 13.69 92.07 20.38 93.87 22.18 101.31 14.72 101.31 8.21 82.79 8.21 82.31 8.21"/>
      <path d="M109.6,18.77h3.47L116,23h3.49l-3.43-4.89a4.84,4.84,0,0,0,3-4.68c0-3.33-2.46-5.4-6.41-5.4h-6.2V23h3.17Zm0-8h2.9c1.53,0,3.34.46,3.34,2.64s-1.81,2.65-3.34,2.65h-2.9Z"/>
      <path d="M128.56,23.2c4.66,0,8-3.23,8-7.69s-3.38-7.69-8-7.69a7.7,7.7,0,1,0,0,15.38Zm0-12.54a4.69,4.69,0,0,1,4.85,4.85,4.85,4.85,0,1,1-9.7,0A4.69,4.69,0,0,1,128.56,10.66Z"/>
      <path d="M144.46,14.17c-1.74-.41-3.24-.77-3.24-1.91s1.06-1.72,2.9-1.72a7.81,7.81,0,0,1,3.87,1.1l.24.14,1-2.53-.16-.11a9.41,9.41,0,0,0-5-1.32c-4.49,0-6.08,2.46-6.08,4.56,0,3.25,3,4,5.36,4.53,1.74.41,3.25.77,3.25,1.93s-1,1.64-3,1.64a7.77,7.77,0,0,1-4.63-1.54l-.25-.2-1.13,2.55.14.11a9.52,9.52,0,0,0,5.87,1.8c4.5,0,6.09-2.45,6.09-4.55C149.8,15.44,146.84,14.74,144.46,14.17Z"/>
      <path d="M156.72,20.48a7.8,7.8,0,0,1-4.63-1.54l-.24-.2-1.13,2.55.13.11a9.54,9.54,0,0,0,5.87,1.8c4.5,0,6.1-2.45,6.1-4.55,0-3.21-3-3.91-5.35-4.48-1.74-.41-3.24-.77-3.24-1.91s1.06-1.72,2.9-1.72a7.85,7.85,0,0,1,3.88,1.1l.24.14,1-2.53-.17-.11a9.35,9.35,0,0,0-5-1.32c-4.49,0-6.08,2.46-6.08,4.56,0,3.25,3,4,5.35,4.53,1.75.41,3.26.77,3.26,1.93S158.63,20.48,156.72,20.48Z"/>
      <polygon points="111.47 32.71 107.61 26.12 106.43 26.12 106.43 35.81 107.84 35.81 107.84 29.13 111.08 34.64 111.82 34.64 115.06 29.1 115.06 35.81 116.48 35.81 116.48 26.12 115.29 26.12 111.47 32.71"/>
      <path d="M121.82,26.12l-4.44,9.69h1.55L120,33.35h4.82l1.1,2.46h1.56l-4.43-9.69Zm-1.21,6L122.45,28l1.83,4.11Z"/>
      <polygon points="133.47 32.71 129.61 26.12 128.43 26.12 128.43 35.81 129.85 35.81 129.85 29.13 133.09 34.64 133.82 34.64 137.06 29.1 137.06 35.81 138.48 35.81 138.48 26.12 137.29 26.12 133.47 32.71"/>
      <path d="M143.82,26.12l-4.43,9.69h1.54L142,33.35h4.82l1.1,2.46h1.56l-4.43-9.69Zm-1.21,6L144.45,28l1.83,4.11Z"/>
      <polygon points="157.17 33.14 151.59 26.12 150.43 26.12 150.43 35.81 151.89 35.81 151.89 28.79 157.45 35.81 158.61 35.81 158.61 26.12 157.17 26.12 157.17 33.14"/>
      <rect x="161.13" y="26.12" width="1.46" height="9.7"/>
    </g>
  </g>
</svg>
